<?xml version="1.0" encoding="UTF-8" standalone="no"?>
<!-- Created with Inkscape (http://www.inkscape.org/) -->

<svg
   xmlns:dc="http://purl.org/dc/elements/1.1/"
   xmlns:cc="http://creativecommons.org/ns#"
   xmlns:rdf="http://www.w3.org/1999/02/22-rdf-syntax-ns#"
   xmlns:svg="http://www.w3.org/2000/svg"
   xmlns="http://www.w3.org/2000/svg"
   xmlns:sodipodi="http://sodipodi.sourceforge.net/DTD/sodipodi-0.dtd"
   xmlns:inkscape="http://www.inkscape.org/namespaces/inkscape"
   width="642.61377mm"
   height="92.462364mm"
   viewBox="0 0 2276.978 327.62257"
   id="svg2"
   version="1.1"
   inkscape:version="0.91 r13725"
   sodipodi:docname="logoev_3.svg">
  <defs
     id="defs4" />
  <sodipodi:namedview
     id="base"
     pagecolor="#ffffff"
     bordercolor="#666666"
     borderopacity="1.0"
     inkscape:pageopacity="0.0"
     inkscape:pageshadow="2"
     inkscape:zoom="0.175"
     inkscape:cx="958.11632"
     inkscape:cy="514.66317"
     inkscape:document-units="px"
     inkscape:current-layer="layer1"
     showgrid="false"
     fit-margin-top="0"
     fit-margin-left="0"
     fit-margin-right="0"
     fit-margin-bottom="0"
     inkscape:window-width="1280"
     inkscape:window-height="979"
     inkscape:window-x="0"
     inkscape:window-y="1"
     inkscape:window-maximized="1" />
  <metadata
     id="metadata7">
    <rdf:RDF>
      <cc:Work
         rdf:about="">
        <dc:format>image/svg+xml</dc:format>
        <dc:type
           rdf:resource="http://purl.org/dc/dcmitype/StillImage" />
        <dc:title></dc:title>
      </cc:Work>
    </rdf:RDF>
  </metadata>
  <g
     inkscape:label="Calque 1"
     inkscape:groupmode="layer"
     id="layer1"
     transform="translate(145.60036,476.39603)">
    <g
       transform="matrix(1.4288372,0,0,1.4288372,-631.75452,-622.25348)"
       style="font-style:normal;font-variant:normal;font-weight:normal;font-stretch:normal;font-size:180px;line-height:125%;font-family:Oswald;-inkscape-font-specification:'Oswald, Normal';text-align:start;letter-spacing:0px;word-spacing:0px;writing-mode:lr-tb;text-anchor:start;fill:#222222;fill-opacity:1;stroke:none;stroke-width:1px;stroke-linecap:butt;stroke-linejoin:miter;stroke-opacity:1"
       id="flowRoot4196">
      <path
         d="m 572.89453,301.96351 0,-157.5 22.5,0 0,140.625 39.375,0 0,16.875 z"
         id="path4209"
         inkscape:connector-curvature="0"
         style="fill:#ffffff"
         sodipodi:nodetypes="ccccccc" />
      <path
         d="m 645.31641,301.96351 0,-157.5 61.875,0 0,16.875 -39.375,0 0,50.625 28.125,0 0,16.875 -28.125,0 0,56.25 39.375,0 0,16.875 -61.875,0 z"
         id="path4211"
         inkscape:connector-curvature="0"
         style="fill:#ffffff" />
      <path
         d="m 761.94727,303.54554 q -21.26954,0 -32.51954,-12.48047 -11.16211,-12.48047 -12.48046,-34.10156 l 22.5,-5.625 q 1.66992,33.75 22.5,33.75 16.875,0 16.875,-16.875 0,-5.00977 -1.40625,-9.22852 -1.31836,-4.30664 -4.13086,-7.82227 -2.8125,-3.60351 -5.09766,-5.71289 -2.28516,-2.19726 -6.24023,-5.36132 l -28.125,-22.5 q -7.73438,-6.06446 -12.39258,-15.38086 -4.57032,-9.4043 -4.57032,-21.35743 0,-17.40234 10.81055,-27.68554 10.81055,-10.28321 28.65235,-10.28321 19.16015,0 30.41015,9.4043 11.33789,9.31641 13.97461,26.45508 0.26367,1.8457 0.61524,5.09766 l -22.5,5.625 q -0.0879,-1.49415 -0.43946,-4.48243 -1.49414,-10.72265 -6.76758,-17.13867 -5.18554,-6.5039 -15.29296,-6.5039 -8.08594,0 -12.48047,4.57031 -4.39453,4.48242 -4.39453,12.56836 0,13.27148 11.25,22.23633 l 28.125,22.5 q 22.5,18.19335 22.5,43.50585 0,17.31446 -10.72266,27.07032 -10.63477,9.75586 -28.65234,9.75586 z"
         id="path4213"
         inkscape:connector-curvature="0"
         style="fill:#ffffff" />
      <path
         d="m 854.14453,301.96351 0,-157.5 61.875,0 0,16.875 -39.375,0 0,50.625 28.125,0 0,16.875 -28.125,0 0,56.25 39.375,0 0,16.875 -61.875,0 z m 25.3125,-168.04688 11.25,-33.75 22.5,0 -22.5,33.75 -11.25,0 z"
         id="path4215"
         inkscape:connector-curvature="0"
         style="fill:#ffffff" />
      <path
         d="m 970.16016,303.54554 q -9.93164,0 -17.49024,-2.8125 -7.55859,-2.8125 -12.39258,-7.73438 -4.83398,-5.00976 -7.91015,-12.39258 -2.98828,-7.4707 -4.21875,-15.9082 -1.23047,-8.4375 -1.23047,-19.07227 l 0,-44.9121 q 0,-10.63477 1.23047,-19.07227 1.23047,-8.4375 4.21875,-15.82031 3.07617,-7.47071 7.91015,-12.39258 4.83399,-4.92188 12.39258,-7.73438 7.5586,-2.8125 17.49024,-2.8125 10.98632,0 18.98437,3.25196 7.99805,3.25195 12.74417,9.58008 4.834,6.32812 7.207,14.67773 2.4609,8.34961 2.9004,19.51172 0.088,1.66992 0.088,5.18555 l -22.50002,0 0,-5.00977 q -0.0879,-4.6582 -0.35156,-7.91016 -0.26367,-3.33984 -0.9668,-6.85547 -0.70312,-3.51562 -2.10937,-5.80078 -1.31836,-2.37304 -3.42773,-4.30664 -2.02149,-2.02148 -5.18555,-2.90039 -3.16406,-0.96679 -7.38281,-0.96679 -5.44922,0 -9.4043,1.75781 -3.86719,1.75781 -6.06445,4.57031 -2.19727,2.72461 -3.42774,7.38281 -1.14258,4.65821 -1.49414,9.14063 -0.35156,4.39453 -0.35156,10.89844 l 0,56.25 q 0,5.625 0.43945,10.19531 0.52735,4.57031 1.9336,9.14062 1.40625,4.48242 3.60351,7.5586 2.28516,3.07617 5.97656,5.00976 3.7793,1.84571 8.78907,1.84571 5.00976,0 8.61328,-1.9336 3.60351,-1.93359 5.625,-4.92187 2.10937,-2.98828 3.25195,-7.64649 1.23047,-4.6582 1.58203,-9.05273 0.35156,-4.39453 0.35156,-10.19531 l 0,-5.625 22.50002,0 0,5.625 q 0,12.21679 -2.1973,21.44531 -2.1094,9.22851 -6.9433,16.34765 -4.74613,7.03125 -13.00785,10.72266 -8.17383,3.69141 -19.77539,3.69141 z"
         id="path4217"
         inkscape:connector-curvature="0"
         style="fill:#ffffff" />
      <path
         d="m 1027.1133,301.96351 0,-157.5 22.5,0 0,67.5 39.375,0 0,-67.5 22.5,0 0,157.5 -22.5,0 0,-73.125 -39.375,0 0,73.125 -22.5,0 z"
         id="path4219"
         inkscape:connector-curvature="0"
         style="fill:#ffffff" />
      <path
         d="m 1157.8945,245.71351 22.5,0 -11.25,-67.5 -11.25,67.5 z m -33.75,56.25 33.75,-157.5 22.5,0 33.75,157.5 -22.5,0 -8.4375,-39.375 -28.125,0 -8.4375,39.375 -22.5,0 z"
         id="path4221"
         inkscape:connector-curvature="0"
         style="fill:#ffffff" />
      <path
         d="m 1249.3008,211.96351 5.625,0 q 7.6465,0 12.4805,-0.87891 4.9218,-0.87891 8.6132,-3.25195 3.7793,-2.46094 5.3614,-6.94336 1.6699,-4.48243 1.6699,-11.42578 0,-8.4375 -1.2305,-13.62305 -1.2305,-5.27344 -4.5703,-8.61328 -3.252,-3.33985 -8.5254,-4.57032 -5.1855,-1.31835 -13.7988,-1.31835 l -5.625,0 0,50.625 z m -22.5,90 0,-157.5 39.375,0 q 39.375,0 39.375,45 0,19.24804 -10.1953,29.35546 -10.1075,10.01954 -29.1797,10.01954 l -16.875,0 0,73.125 -22.5,0 z"
         id="path4223"
         inkscape:connector-curvature="0"
         style="fill:#ffffff" />
      <path
         d="m 1340.707,211.96351 5.625,0 q 7.6465,0 12.4805,-0.87891 4.9219,-0.87891 8.6133,-3.25195 3.7793,-2.46094 5.3613,-6.94336 1.6699,-4.48243 1.6699,-11.42578 0,-8.4375 -1.2304,-13.62305 -1.2305,-5.27344 -4.5703,-8.61328 -3.252,-3.33985 -8.5254,-4.57032 -5.1856,-1.31835 -13.7989,-1.31835 l -5.625,0 0,50.625 z m -22.5,90 0,-157.5 39.375,0 q 39.375,0 39.375,45 0,19.24804 -10.1953,29.35546 -10.1074,10.01954 -29.1797,10.01954 l -16.875,0 0,73.125 -22.5,0 z"
         id="path4225"
         inkscape:connector-curvature="0"
         style="fill:#ffffff" />
      <path
         d="m 1409.6133,301.96351 0,-157.5 61.875,0 0,16.875 -39.375,0 0,50.625 28.125,0 0,16.875 -28.125,0 0,56.25 39.375,0 0,16.875 -61.875,0 z m 25.3125,-168.04688 11.25,-33.75 22.5,0 -22.5,33.75 -11.25,0 z"
         id="path4227"
         inkscape:connector-curvature="0"
         style="fill:#ffffff" />
      <path
         d="m 1526.2441,303.54554 q -21.2695,0 -32.5195,-12.48047 -11.1621,-12.48047 -12.4805,-34.10156 l 22.5,-5.625 q 1.67,33.75 22.5,33.75 16.875,0 16.875,-16.875 0,-5.00977 -1.4062,-9.22852 -1.3184,-4.30664 -4.1309,-7.82227 -2.8125,-3.60351 -5.0976,-5.71289 -2.2852,-2.19726 -6.2403,-5.36132 l -28.125,-22.5 q -7.7343,-6.06446 -12.3925,-15.38086 -4.5703,-9.4043 -4.5703,-21.35743 0,-17.40234 10.8105,-27.68554 10.8105,-10.28321 28.6523,-10.28321 19.1602,0 30.4102,9.4043 11.3379,9.31641 13.9746,26.45508 0.2637,1.8457 0.6152,5.09766 l -22.5,5.625 q -0.088,-1.49415 -0.4394,-4.48243 -1.4942,-10.72265 -6.7676,-17.13867 -5.1855,-6.5039 -15.293,-6.5039 -8.0859,0 -12.4804,4.57031 -4.3946,4.48242 -4.3946,12.56836 0,13.27148 11.25,22.23633 l 28.125,22.5 q 22.5,18.19335 22.5,43.50585 0,17.31446 -10.7226,27.07032 -10.6348,9.75586 -28.6524,9.75586 z"
         id="path4229"
         inkscape:connector-curvature="0"
         style="fill:#ffffff" />
      <path
         d="m 1641.9961,301.96351 -33.75,-157.5 22.5,0 16.6113,84.375 5.8008,39.375 5.9766,-39.375 16.6113,-84.375 22.5,0 -33.75,157.5 -22.5,0 z"
         style="fill:#ff7744;fill-opacity:1"
         id="path4231"
         inkscape:connector-curvature="0" />
      <path
         d="m 1711.6055,301.96351 0,-157.5 22.5,0 0,157.5 -22.5,0 z"
         style="fill:#ff7744;fill-opacity:1"
         id="path4233"
         inkscape:connector-curvature="0" />
      <path
         d="m 1758.3633,301.96351 0,-157.5 61.875,0 0,16.875 -39.375,0 0,50.625 28.125,0 0,16.875 -28.125,0 0,73.125 -22.5,0 z"
         style="fill:#ff7744;fill-opacity:1"
         id="path4235"
         inkscape:connector-curvature="0" />
      <path
         d="m 1871.4785,303.54554 q -21.2695,0 -32.5195,-12.48047 -11.1621,-12.48047 -12.4805,-34.10156 l 22.5,-5.625 q 1.6699,33.75 22.5,33.75 16.875,0 16.875,-16.875 0,-5.00977 -1.4062,-9.22852 -1.3184,-4.30664 -4.1309,-7.82227 -2.8125,-3.60351 -5.0976,-5.71289 -2.2852,-2.19726 -6.2403,-5.36132 l -28.125,-22.5 q -7.7344,-6.06446 -12.3926,-15.38086 -4.5703,-9.4043 -4.5703,-21.35743 0,-17.40234 10.8106,-27.68554 10.8105,-10.28321 28.6523,-10.28321 19.1602,0 30.4102,9.4043 11.3379,9.31641 13.9746,26.45508 0.2637,1.8457 0.6152,5.09766 l -22.5,5.625 q -0.088,-1.49415 -0.4394,-4.48243 -1.4942,-10.72265 -6.7676,-17.13867 -5.1856,-6.5039 -15.293,-6.5039 -8.0859,0 -12.4805,4.57031 -4.3945,4.48242 -4.3945,12.56836 0,13.27148 11.25,22.23633 l 28.125,22.5 q 22.5,18.19335 22.5,43.50585 0,17.31446 -10.7226,27.07032 -10.6348,9.75586 -28.6524,9.75586 z"
         style="fill:#ff7744;fill-opacity:1"
         id="path4237"
         inkscape:connector-curvature="0" />
    </g>
    <path
       style="fill:#ffffff;fill-opacity:1"
       d="m -63.338442,-164.36933 0,-20.70264 0,-20.70255 -15.415458,0 -15.41554,0 0.39828,-2.89952 c 0.78001,-5.67803 3.39282,-13.19621 5.87558,-16.90643 3.86201,-5.77126 9.75081,-8.78352 22.430826,-11.4738 l 2.126312,-0.45109 0,-89.29049 0,-89.29038 86.985552,0 86.98554,0 0,54.12432 0,54.12435 -12.70019,0 -12.7002,0 -14.66167,-16.044 c -17.7479,-19.42121 -18.29186,-19.93608 -22.18092,-20.99352 -2.00276,-0.54446 -14.83208,-0.84239 -36.401396,-0.84518 l -33.308499,-0.008 -3.460476,2.29209 c -4.437839,2.93947 -6.922842,6.09663 -13.410958,17.03802 -6.809461,11.48324 -12.003076,22.16816 -11.999441,24.68642 0.0077,4.40827 5.670218,10.102 10.048801,10.102 4.845905,0 6.65853,-2.23001 19.22677,-23.65466 l 5.488592,-9.35609 6.39255,-0.49764 c 3.515915,-0.27363 8.54368,-0.49963 11.172884,-0.50219 l 4.780339,-0.008 -5.803599,12.56457 c -3.192019,6.91051 -7.180209,15.06164 -8.862626,18.11372 -4.99382,9.05917 -5.930328,14.55139 -6.530715,38.30115 -0.380961,15.07056 -0.794934,21.02795 -1.531334,22.03637 -0.924524,1.26604 -3.271742,1.41976 -27.941872,1.82994 -30.43604,0.50606 -31.42095,0.67354 -37.18496,6.32473 -3.46079,3.39305 -6.37152,9.67287 -6.37152,13.74641 l 0,2.29063 43.968364,0 c 43.417331,0 43.99422,-0.0201 46.021176,-1.61469 2.174869,-1.71079 4.070616,-4.88069 5.249831,-8.77842 0.393479,-1.30061 1.362231,-12.04652 2.152834,-23.87981 0.7906,-11.83329 1.572853,-21.65045 1.738316,-21.81591 0.165467,-0.16539 9.156609,17.69149 19.980299,39.68196 12.37902,25.1505 20.66182,41.07821 22.32753,42.93575 4.35322,4.85433 5.5196,5.17251 18.96323,5.17251 6.61277,0 12.02311,-0.1166 12.02311,-0.25918 0,-0.1425 -10.6168,-21.97587 -23.59287,-48.51859 -12.97616,-26.54255 -23.79191,-49.00973 -24.03507,-49.92675 -0.30225,-1.14002 1.81169,-6.39827 6.68342,-16.62391 3.91907,-8.22612 7.2665,-15.11391 7.4387,-15.3062 0.17218,-0.19237 5.61091,4.93978 12.08604,11.40478 l 11.77288,11.75479 17.19469,0 17.19476,0 0,61.29173 0,61.29178 -4.9048,15.9166 -27.24941,0.35715 -15.82093,0 c 6.787987,-7.09412 12.14475,-14.67869 18.10767,-21.33012 l -24.08668,0 -28.340677,22.46046 -51.528154,-0.35714 -90.099679,-0.71429 z M 56.33837,-352.35699 c 7.1441,-3.56 11.2451,-10.13232 11.30063,-18.11015 0.0595,-8.53184 -4.32393,-15.32701 -12.29048,-19.05316 -13.80217,-6.45572 -30.51368,5.66921 -28.72286,20.83966 0.87179,7.38472 5.5523,13.729 12.43498,16.85514 4.81909,2.18882 12.27935,1.9593 17.27773,-0.53149 z"
       id="path4251"
       inkscape:connector-curvature="0"
       sodipodi:nodetypes="ccccccsscccccccccssscsscsscsscssscssscsssscscssscsscccccccccccccccscssss" />
  </g>
</svg>
